<svg xmlns="http://www.w3.org/2000/svg" xmlns:xlink="http://www.w3.org/1999/xlink" width="350" height="133.064" viewBox="0 0 350 133.064"><defs><style>.a{fill:none;}.b{clip-path:url(#a);}.c{fill:#dd1f26;}.d{fill:#fff;}</style><clipPath id="a"><rect class="a" width="350" height="133.064"/></clipPath></defs><g transform="translate(175 66.532)"><g class="b" transform="translate(-175 -66.532)"><path class="c" d="M310.468,101a5.868,5.868,0,1,0,5.868,5.868A5.868,5.868,0,0,0,310.468,101" transform="translate(-151.842 -50.348)"/><path class="d" d="M572.147,130.9H561.164a13.039,13.039,0,0,0-12.989,12.989v22.317a4.865,4.865,0,1,0,9.679,0V143.939a3.31,3.31,0,0,1,2.959-3.31h11.334a4.865,4.865,0,1,0,0-9.729" transform="translate(-273.25 -65.253)"/><path class="d" d="M455.111,135.765A4.865,4.865,0,0,0,450.3,130.9H439.164a12.889,12.889,0,0,0-12.889,12.989v22.317a4.865,4.865,0,1,0,9.679,0V143.939a3.31,3.31,0,0,1,2.959-3.31h11.334a4.865,4.865,0,0,0,4.865-4.865" transform="translate(-212.484 -65.253)"/><path class="d" d="M485.341,130.9h-7.823a4.865,4.865,0,1,0,0,9.729h7.874a3.31,3.31,0,0,1,3.31,3.31v14.293a3.31,3.31,0,0,1-3.26,3.31h-17.6a3.711,3.711,0,1,1,.1-7.372h12.588a4.865,4.865,0,1,0,0-9.729H467.939A13.039,13.039,0,0,0,454.9,157.48v.6a12.989,12.989,0,0,0,12.989,12.989h17.5a12.939,12.939,0,0,0,12.989-12.939V143.939A13.039,13.039,0,0,0,485.391,130.9" transform="translate(-226.766 -65.253)"/><path class="d" d="M311.615,130.9a4.865,4.865,0,0,0-4.915,4.915v30.341a4.865,4.865,0,0,0,4.915,4.915,4.735,4.735,0,0,0,4.764-4.915V135.865a4.735,4.735,0,0,0-4.764-4.915" transform="translate(-152.888 -65.253)"/><path class="d" d="M650.414,130.95a5.139,5.139,0,0,0-4.865,5.165V157.63c0,2.156-1.053,3.912-2.758,3.912H624.737c-1.354,0-2.257-.953-2.708-2.507v-.1h0a5.032,5.032,0,0,1-.1-1V136.015a4.823,4.823,0,1,0-9.629,0v20.562a4.975,4.975,0,0,0,.05.7h0a6.391,6.391,0,0,0,.05.953,17.127,17.127,0,0,0,.752,4.112c1.805,5.115,6.118,8.726,11.585,8.726h17.7a3.26,3.26,0,1,1,0,6.52h-13.29c-2.457,0-4.112,2.357-4.112,4.915a4.614,4.614,0,0,0,4.664,4.714h13.892c6.52-.6,11.635-6.72,11.635-13.791V136.116a5.063,5.063,0,0,0-4.814-5.165" transform="translate(-305.229 -65.253)"/><path class="d" d="M363.388,113.9H350.65a4.865,4.865,0,0,0-4.814,4.965,4.664,4.664,0,0,0,4.814,4.714h12.738a3.36,3.36,0,0,1,3.26,3.511v13.842a3.511,3.511,0,0,1-3.461,3.511H345.735a3.511,3.511,0,0,1-3.41-3.511V101.714A4.865,4.865,0,0,0,337.41,96.8a4.764,4.764,0,0,0-4.814,4.915v38.766A12.988,12.988,0,0,0,334,146.7a12.838,12.838,0,0,0,11.484,7.422h17.9a12.839,12.839,0,0,0,11.484-7.422,11.807,11.807,0,0,0,1.4-6.219v-13.34a12.944,12.944,0,0,0-12.939-13.24" transform="translate(-165.795 -48.254)"/><path class="d" d="M261.485,148.88H246.039a3.51,3.51,0,0,1-3.41-3.511h0V110.715a4.823,4.823,0,1,0-9.629,0v34.152c0,7.673,5.115,13.641,11.635,13.641h16.9c2.808,0,5.115-1.856,5.115-4.664a5.015,5.015,0,0,0-5.115-4.965" transform="translate(-116.149 -52.641)"/><path class="d" d="M137.875,47.247l-9.93-8.726h0L87.223,2.613a10.431,10.431,0,0,0-14.694.9L37.273,43.536a40.422,40.422,0,0,0-4.814-.251,33.751,33.751,0,1,0,0,67.452,55.062,55.062,0,0,0,8.626-.9L64.5,130.446a10.431,10.431,0,0,0,14.694-.9l31.8-35.908V57.929a9.428,9.428,0,1,1,18.857,0V72.071l8.927-10.181a10.431,10.431,0,0,0-.953-14.694m-93.38,54.965a12.286,12.286,0,0,1-2.006,1.4l-1.5.752a22.151,22.151,0,0,1-9.93,1.3,28.535,28.535,0,0,1-7.172-1.3h-.15A28.636,28.636,0,0,1,32.458,48.35a22.351,22.351,0,0,1,10.08,1.856A6.723,6.723,0,0,1,46.6,56.224a7.573,7.573,0,0,1-.6,2.708c-1.655,4.062-6.921,3.611-9.428,3.159a30.443,30.443,0,0,0-4.112-.552,15.4,15.4,0,0,0-15.4,15.4h0A15.4,15.4,0,0,0,38.476,91.128c2.056-.552,5.817-.9,8.024,3.41a5.717,5.717,0,0,1,.7,2.808A6.449,6.449,0,0,1,45,101.61l-.5.451m57.472-44.784L81.455,102.111a6.269,6.269,0,0,1-5.416,3.661h-.652a6.269,6.269,0,0,1-5.416-3.711L49.961,57.327A6.269,6.269,0,1,1,61.4,52.212L75.838,84.458l14.744-32.3a6.269,6.269,0,1,1,11.384,5.216" transform="translate(1.293 -0.005)"/></g></g></svg>